<svg xmlns="http://www.w3.org/2000/svg" viewBox="0 0 50 50">
  <defs>
    <style>
      .cls-1 {
        fill: #ffcf08;
      }
    </style>
  </defs>
  <g id="Asset">
    <g>
      <path class="cls-1" d="M7.47,6.54,9,12s-3.68,3.21,1.74,6.19c0,0,13.85,3.71,23.51,18.54,0,0-16.78-16.59-24.31-13.57,0,0-2.31,5.33,4.06,6.43,0,0-1,6.38-7.51,1.81,0,0,9.67,11.45,12.46-2.12,0,0,7.44.28,11.62,11.67l12.88,2.6"/>
      <path class="cls-1" d="M7.47,6.54l5.89,1.34s3.4-3.52,6.05,2.09c0,0,2.89,14.11,17.07,24.65,0,0-15.52-17.79-12.09-25.17,0,0,5.43-2,6.15,4.45,0,0,6.41-.7,2.24-7.44,0,0,10.81,10.35-2.82,12.38,0,0,.11,8.62,10.49,12.06l3,12.64"/>
    </g>
  </g>
</svg>
