<svg xmlns="http://www.w3.org/2000/svg" xmlns:xlink="http://www.w3.org/1999/xlink" viewBox="0 0 360.67 203.76">
  <defs>
    <style>
      .cls-1 {
        fill: none;
      }

      .cls-2 {
        fill: #fff;
        stroke: #ef5557;
        stroke-miterlimit: 10;
        stroke-width: 2px;
      }

      .cls-3 {
        clip-path: url(#clip-path);
      }
    </style>
    <clipPath id="clip-path" transform="translate(83.87)">
      <rect class="cls-1" x="1.83" y="3.48" width="179.98" height="192.95"/>
    </clipPath>
  </defs>
  <g id="Layer_2" data-name="Layer 2">
    <g id="Sec2">
      <g>
        <rect class="cls-2" x="84.87" y="1" width="181.35" height="196.18"/>
        <g class="cls-3">
          <g>
            <rect class="cls-2" x="10.2" y="139.99" width="341.32" height="6.74"/>
            <rect class="cls-2" x="13.83" y="146.73" width="334.06" height="19.71"/>
            <rect class="cls-2" x="13.83" y="169.56" width="334.06" height="33.2"/>
            <rect class="cls-2" x="13.83" y="166.45" width="334.06" height="3.11"/>
            <polygon class="cls-2" points="357.74 139.99 321.43 111.98 218.72 109.91 218.72 139.99 357.74 139.99"/>
            <polygon class="cls-2" points="2.93 139.99 39.24 111.98 141.95 109.91 141.95 139.99 2.93 139.99"/>
            <line class="cls-2" x1="13.83" y1="193.59" x2="347.88" y2="193.59"/>
            <rect class="cls-2" x="135.73" y="122.35" width="88.18" height="80.4"/>
            <g>
              <g>
                <rect class="cls-2" x="147.92" y="144.14" width="3.11" height="17.12"/>
                <rect class="cls-2" x="168.67" y="144.14" width="3.11" height="17.12"/>
                <rect class="cls-2" x="189.41" y="144.14" width="3.11" height="17.12"/>
                <rect class="cls-2" x="210.16" y="144.14" width="3.11" height="17.12"/>
              </g>
              <rect class="cls-2" x="142.21" y="142.07" width="74.7" height="4.15"/>
              <rect class="cls-2" x="147.4" y="173.71" width="3.11" height="24.9"/>
              <rect class="cls-2" x="168.15" y="173.71" width="3.11" height="24.9"/>
              <rect class="cls-2" x="188.9" y="173.71" width="3.11" height="24.9"/>
              <rect class="cls-2" x="209.64" y="173.71" width="3.11" height="24.9"/>
              <rect class="cls-2" x="142.73" y="160.22" width="74.7" height="4.15"/>
              <rect class="cls-2" x="142.73" y="171.63" width="74.7" height="4.15"/>
              <line class="cls-2" x1="144.67" y1="164.37" x2="144.67" y2="171.63"/>
              <line class="cls-2" x1="215.35" y1="164.37" x2="215.35" y2="171.63"/>
              <g>
                <polyline class="cls-2" points="211.4 137.4 211.4 137.4 211.4 142.07"/>
                <polyline class="cls-2" points="147.72 136.88 147.72 136.88 147.72 141.55"/>
              </g>
              <rect class="cls-2" x="145.32" y="175.78" width="7.26" height="4.15"/>
              <rect class="cls-2" x="166.07" y="175.78" width="7.26" height="4.15"/>
              <rect class="cls-2" x="186.82" y="175.78" width="7.26" height="4.15"/>
              <rect class="cls-2" x="207.57" y="175.78" width="7.26" height="4.15"/>
              <polygon class="cls-2" points="196.68 128.06 162.44 128.06 145.84 137.4 213.28 137.4 196.68 128.06"/>
            </g>
            <line class="cls-2" x1="135.73" y1="198.61" x2="223.91" y2="198.61"/>
            <g>
              <rect class="cls-2" x="25.47" y="151.4" width="6.79" height="9.34"/>
              <rect class="cls-2" x="34.81" y="151.4" width="6.79" height="9.34"/>
            </g>
            <g>
              <rect class="cls-2" x="54.52" y="151.4" width="6.79" height="9.34"/>
              <rect class="cls-2" x="63.86" y="151.4" width="6.79" height="9.34"/>
            </g>
            <g>
              <rect class="cls-2" x="83.57" y="151.4" width="6.79" height="9.34"/>
              <rect class="cls-2" x="92.91" y="151.4" width="6.79" height="9.34"/>
            </g>
            <g>
              <rect class="cls-2" x="112.62" y="151.4" width="6.79" height="9.34"/>
              <rect class="cls-2" x="121.96" y="151.4" width="6.79" height="9.34"/>
            </g>
            <rect class="cls-2" x="231.93" y="151.4" width="6.79" height="9.34"/>
            <rect class="cls-2" x="241.26" y="151.4" width="6.79" height="9.34"/>
            <rect class="cls-2" x="260.97" y="151.4" width="6.79" height="9.34"/>
            <rect class="cls-2" x="270.31" y="151.4" width="6.79" height="9.34"/>
            <rect class="cls-2" x="290.02" y="151.4" width="6.79" height="9.34"/>
            <rect class="cls-2" x="299.36" y="151.4" width="6.79" height="9.34"/>
            <rect class="cls-2" x="319.07" y="151.4" width="6.79" height="9.34"/>
            <rect class="cls-2" x="328.41" y="151.4" width="6.79" height="9.34"/>
            <rect class="cls-2" x="28.87" y="174.23" width="9.34" height="13.49"/>
            <rect class="cls-2" x="57.92" y="174.23" width="9.34" height="13.49"/>
            <rect class="cls-2" x="86.97" y="174.23" width="9.34" height="13.49"/>
            <rect class="cls-2" x="116.01" y="174.23" width="9.34" height="13.49"/>
            <rect class="cls-2" x="235.84" y="174.75" width="9.34" height="13.49"/>
            <rect class="cls-2" x="264.89" y="174.75" width="9.34" height="13.49"/>
            <rect class="cls-2" x="293.94" y="174.75" width="9.34" height="13.49"/>
            <rect class="cls-2" x="322.98" y="174.75" width="9.34" height="13.49"/>
            <g>
              <polygon class="cls-2" points="180.52 86.99 119.11 122.87 240.52 122.87 180.52 86.99"/>
              <line class="cls-2" x1="129.36" y1="117.15" x2="168.92" y2="117.15"/>
              <line class="cls-2" x1="177.22" y1="117.17" x2="189.67" y2="117.17"/>
              <line class="cls-2" x1="172.04" y1="117.17" x2="174.11" y2="117.17"/>
              <line class="cls-2" x1="192.79" y1="117.17" x2="199.01" y2="117.17"/>
              <line class="cls-2" x1="202.12" y1="117.17" x2="204.2" y2="117.17"/>
            </g>
            <g>
              <polygon class="cls-2" points="180.28 85.53 139.94 106.3 219.7 106.3 180.28 85.53"/>
              <line class="cls-2" x1="149.07" y1="101.59" x2="179.3" y2="101.59"/>
              <line class="cls-2" x1="182.41" y1="101.61" x2="188.64" y2="101.61"/>
            </g>
          </g>
        </g>
      </g>
    </g>
  </g>
</svg>
