<?xml version="1.0" encoding="utf-8"?>
<!-- Generator: Adobe Illustrator 24.1.2, SVG Export Plug-In . SVG Version: 6.00 Build 0)  -->
<svg version="1.1" xmlns="http://www.w3.org/2000/svg" xmlns:xlink="http://www.w3.org/1999/xlink" x="0px" y="0px"
	 viewBox="0 0 1396.99 1322.32" style="enable-background:new 0 0 1396.99 1322.32;" xml:space="preserve">
<style type="text/css">
	.st0{fill:url(#SVGID_1_);}
	.st1{fill:url(#SVGID_2_);}
	.st2{fill:url(#SVGID_3_);}
	.st3{fill:url(#SVGID_4_);}
	.st4{fill:url(#SVGID_5_);}
	.st5{fill:url(#SVGID_6_);}
	.st6{fill:url(#SVGID_7_);}
	.st7{fill:url(#SVGID_8_);}
	.st8{fill:#3C4CB5;}
	.st9{fill:url(#SVGID_9_);}
	.st10{display:none;fill:url(#SVGID_10_);}
	.st11{display:none;fill:url(#SVGID_11_);}
	.st12{fill:url(#SVGID_12_);}
	.st13{display:none;fill:url(#SVGID_13_);}
	.st14{display:none;fill:url(#SVGID_14_);}
	.st15{fill:url(#SVGID_15_);}
	.st16{display:none;fill:url(#SVGID_16_);}
	.st17{display:none;fill:url(#SVGID_17_);}
	.st18{fill:url(#SVGID_18_);}
	.st19{display:none;fill:url(#SVGID_19_);}
	.st20{display:none;fill:url(#SVGID_20_);}
	.st21{fill:url(#SVGID_21_);}
	.st22{display:none;fill:url(#SVGID_22_);}
	.st23{display:none;fill:url(#SVGID_23_);}
	.st24{fill:url(#SVGID_24_);}
	.st25{display:none;fill:url(#SVGID_25_);}
	.st26{display:none;fill:url(#SVGID_26_);}
	.st27{fill:url(#SVGID_27_);}
	.st28{display:none;fill:url(#SVGID_28_);}
	.st29{display:none;fill:url(#SVGID_29_);}
	.st30{fill:url(#SVGID_30_);}
	.st31{display:none;fill:url(#SVGID_31_);}
	.st32{display:none;fill:url(#SVGID_32_);}
	.st33{fill:url(#SVGID_33_);}
	.st34{display:none;fill:url(#SVGID_34_);}
	.st35{fill:url(#SVGID_35_);}
	.st36{display:none;fill:url(#SVGID_36_);}
	.st37{fill:url(#SVGID_37_);}
	.st38{display:none;fill:url(#SVGID_38_);}
	.st39{fill:url(#SVGID_39_);}
	.st40{display:none;fill:url(#SVGID_40_);}
	.st41{fill:url(#SVGID_41_);}
	.st42{display:none;fill:url(#SVGID_42_);}
	.st43{fill:url(#SVGID_43_);}
	.st44{display:none;fill:url(#SVGID_44_);}
	.st45{fill:url(#SVGID_45_);}
	.st46{display:none;fill:url(#SVGID_46_);}
	.st47{fill:url(#SVGID_47_);}
	.st48{display:none;fill:url(#SVGID_48_);}
</style>
<g id="Layer_12">
</g>
<g id="Layer_6">
</g>
<g id="Layer_4">
</g>
<g id="Layer_9">
</g>
<g id="Layer_11">
	<g>
		<linearGradient id="SVGID_1_" gradientUnits="userSpaceOnUse" x1="335.2487" y1="523.9644" x2="335.2487" y2="77.8355">
			<stop  offset="0" style="stop-color:#358677"/>
			<stop  offset="0.2473" style="stop-color:#378A7B"/>
			<stop  offset="0.4946" style="stop-color:#47B39E"/>
			<stop  offset="0.7204" style="stop-color:#47B39E"/>
			<stop  offset="1" style="stop-color:#6CC2B1"/>
			<stop  offset="1" style="stop-color:#91D1C5"/>
		</linearGradient>
		<path class="st0" d="M123.82,77.84l18.89,65.69c0,0-44.43,38.75,20.93,74.71c0,0,167.02,44.71,283.56,223.54
			c0,0-202.41-200.05-293.23-163.62c0,0-27.78,64.3,49.02,77.5c0,0-12.71,77.01-90.56,21.89c0,0,116.52,138.03,150.16-25.57
			c0,0,89.83,3.28,140.25,140.76l155.22,31.24"/>
		<linearGradient id="SVGID_2_" gradientUnits="userSpaceOnUse" x1="558.0658" y1="300.428" x2="123.8154" y2="300.428">
			<stop  offset="0" style="stop-color:#358677"/>
			<stop  offset="0.2473" style="stop-color:#378A7B"/>
			<stop  offset="0.4946" style="stop-color:#47B39E"/>
			<stop  offset="0.7204" style="stop-color:#47B39E"/>
			<stop  offset="1" style="stop-color:#6CC2B1"/>
			<stop  offset="1" style="stop-color:#91D1C5"/>
		</linearGradient>
		<path class="st1" d="M123.82,77.84l71.02,16.08c0,0,41.03-42.37,73.02,25.26c0,0,34.87,170.15,205.86,297.3
			c0,0-187.16-214.52-145.79-303.58c0,0,65.46-24.21,74.18,53.61c0,0,77.21-8.35,26.91-89.61c0,0,130.46,124.8-33.97,149.22
			c0,0,1.39,103.95,126.56,145.45l36.46,152.4"/>
	</g>
	<g>
		<linearGradient id="SVGID_3_" gradientUnits="userSpaceOnUse" x1="834.8705" y1="302.1163" x2="1274.1449" y2="302.1163">
			<stop  offset="0" style="stop-color:#358677"/>
			<stop  offset="0.2473" style="stop-color:#378A7B"/>
			<stop  offset="0.4946" style="stop-color:#47B39E"/>
			<stop  offset="0.7204" style="stop-color:#47B39E"/>
			<stop  offset="1" style="stop-color:#6CC2B1"/>
			<stop  offset="1" style="stop-color:#91D1C5"/>
		</linearGradient>
		<path class="st2" d="M1274.14,84.87l-65.38,19.92c0,0-39.44-43.82-74.37,22.1c0,0-42.09,167.7-219.08,287.03
			c0,0,196.86-205.51,159.01-295.76c0,0-64.72-26.77-76.72,50.23c0,0-77.19-11.5-23.31-90.2c0,0-136.19,118.67,27.92,149.74
			c0,0-1.87,89.87-138.55,142.44l-28.81,155.69"/>
		<linearGradient id="SVGID_4_" gradientUnits="userSpaceOnUse" x1="1057.37" y1="526.0533" x2="1057.37" y2="84.8677">
			<stop  offset="0" style="stop-color:#358677"/>
			<stop  offset="0.2473" style="stop-color:#378A7B"/>
			<stop  offset="0.4946" style="stop-color:#47B39E"/>
			<stop  offset="0.7204" style="stop-color:#47B39E"/>
			<stop  offset="1" style="stop-color:#6CC2B1"/>
			<stop  offset="1" style="stop-color:#91D1C5"/>
		</linearGradient>
		<path class="st3" d="M1274.14,84.87l-14.96,71.27c0,0,43.01,40.36-24.11,73.4c0,0-169.58,37.53-294.04,210.5
			c0,0,211.57-190.5,301.26-150.53c0,0,25.23,65.07-52.44,75.01c0,0,9.56,77.07,90.02,25.5c0,0-122.74,132.4-149.73-31.63
			c0,0-103.92,3.02-143.45,128.82l-151.82,38.84"/>
	</g>
	<g>
		<linearGradient id="SVGID_5_" gradientUnits="userSpaceOnUse" x1="1054.5077" y1="799.0118" x2="1054.5077" y2="1238.8301">
			<stop  offset="0" style="stop-color:#358677"/>
			<stop  offset="0.2473" style="stop-color:#378A7B"/>
			<stop  offset="0.4946" style="stop-color:#47B39E"/>
			<stop  offset="0.7204" style="stop-color:#47B39E"/>
			<stop  offset="1" style="stop-color:#6CC2B1"/>
			<stop  offset="1" style="stop-color:#91D1C5"/>
		</linearGradient>
		<path class="st4" d="M1271.3,1238.83l-19.83-65.41c0,0,43.87-39.39-22-74.39c0,0-167.65-42.29-286.75-219.43
			c0,0,205.27,197.11,295.56,159.37c0,0,26.85-64.69-50.14-76.78c0,0,11.6-77.18,90.23-23.19c0,0-118.5-136.33-149.77,27.74
			c0,0-89.87-1.99-142.27-138.73l-155.65-29"/>
		<linearGradient id="SVGID_6_" gradientUnits="userSpaceOnUse" x1="830.6595" y1="1021.5948" x2="1271.2992" y2="1021.5948">
			<stop  offset="0" style="stop-color:#358677"/>
			<stop  offset="0.2473" style="stop-color:#378A7B"/>
			<stop  offset="0.4946" style="stop-color:#47B39E"/>
			<stop  offset="0.7204" style="stop-color:#47B39E"/>
			<stop  offset="1" style="stop-color:#6CC2B1"/>
			<stop  offset="1" style="stop-color:#91D1C5"/>
		</linearGradient>
		<path class="st5" d="M1271.3,1238.83l-71.25-15.05c0,0-40.41,42.96-73.37-24.21c0,0-37.32-169.63-210.13-294.3
			c0,0,190.23,211.8,150.16,301.44c0,0-65.1,25.15-74.95-52.54c0,0-77.09,9.47-25.62,89.99c0,0-132.24-122.9,31.82-149.69
			c0,0-2.89-103.92-128.64-143.61l-38.65-151.86"/>
	</g>
	<g>
		<linearGradient id="SVGID_7_" gradientUnits="userSpaceOnUse" x1="565.7659" y1="1023.6417" x2="130.3222" y2="1023.6417">
			<stop  offset="0" style="stop-color:#358677"/>
			<stop  offset="0.2473" style="stop-color:#378A7B"/>
			<stop  offset="0.4946" style="stop-color:#47B39E"/>
			<stop  offset="0.7204" style="stop-color:#47B39E"/>
			<stop  offset="1" style="stop-color:#6CC2B1"/>
			<stop  offset="1" style="stop-color:#91D1C5"/>
		</linearGradient>
		<path class="st6" d="M130.32,1244.08l65.21-20.48c0,0,39.82,43.47,74.18-22.73c0,0,40.63-168.06,216.59-288.91
			c0,0-195.08,207.21-156.45,297.12c0,0,64.95,26.21,76.28-50.89c0,0,77.29,10.83,24.08,89.99c0,0,135.16-119.84-29.21-149.49
			c0,0,1.1-89.88,137.31-143.63l27.45-155.93"/>
		<linearGradient id="SVGID_8_" gradientUnits="userSpaceOnUse" x1="343.8636" y1="799.1133" x2="343.8636" y2="1244.0762">
			<stop  offset="0" style="stop-color:#358677"/>
			<stop  offset="0.2473" style="stop-color:#378A7B"/>
			<stop  offset="0.4946" style="stop-color:#47B39E"/>
			<stop  offset="0.7204" style="stop-color:#47B39E"/>
			<stop  offset="1" style="stop-color:#6CC2B1"/>
			<stop  offset="1" style="stop-color:#91D1C5"/>
		</linearGradient>
		<path class="st7" d="M130.32,1244.08l14.35-71.4c0,0-43.36-39.99,23.48-73.61c0,0,169.25-38.99,292.21-213.03
			c0,0-209.91,192.32-299.95,153.13c0,0-25.79-64.85,51.8-75.46c0,0-10.23-76.99-90.24-24.73c0,0,121.59-133.45,150,30.33
			c0,0,103.89-3.91,142.33-130.05l151.47-40.15"/>
	</g>
	
		<rect x="665.93" y="539.61" transform="matrix(0.716 -0.6981 0.6981 0.716 -202.6598 653.8589)" class="st8" width="72.82" height="72.82"/>
	
		<rect x="576.6" y="627.28" transform="matrix(0.716 -0.6981 0.6981 0.716 -289.2262 616.4012)" class="st8" width="72.82" height="72.82"/>
	
		<rect x="751.95" y="627.28" transform="matrix(0.716 -0.6981 0.6981 0.716 -239.4332 738.8043)" class="st8" width="72.82" height="72.82"/>
	
		<rect x="664.28" y="714.95" transform="matrix(0.716 -0.6981 0.6981 0.716 -325.531 702.5035)" class="st8" width="72.82" height="72.82"/>
	<g>
		<g>
			<linearGradient id="SVGID_9_" gradientUnits="userSpaceOnUse" x1="734.6488" y1="261.1885" x2="734.6488" y2="9.2237">
				<stop  offset="0.1022" style="stop-color:#DE8A5B"/>
				<stop  offset="1" style="stop-color:#FDC766"/>
			</linearGradient>
			<path class="st9" d="M697.35,9.22L666.2,45.8c0,0-22.08,49.03-0.43,85.42l57.38,70.57l48.21-56.61l8.83,10.86
				c0,0,18.39,25.22-7.27,66.59l-21.83-25.55l-15.99,19.4l36.35,44.71l28.98-34.03c0,0,26.56-47.43,2.6-87.96l-27.78-34.17
				l-50.89,58.52l-36.11-43.12c0,0-19.82-34.15,1.07-61.19l24.13-30.22L697.35,9.22z"/>
			<linearGradient id="SVGID_10_" gradientUnits="userSpaceOnUse" x1="680.3494" y1="154.1592" x2="680.3494" y2="76.6417">
				<stop  offset="0.1022" style="stop-color:#DE8A5B"/>
				<stop  offset="1" style="stop-color:#FDC766"/>
			</linearGradient>
			<path class="st10" d="M666.93,76.64c0,0-11.88,30.81,28.48,77.52"/>
			<linearGradient id="SVGID_11_" gradientUnits="userSpaceOnUse" x1="792.9828" y1="215.296" x2="792.9828" y2="159.3272">
				<stop  offset="0.1022" style="stop-color:#DE8A5B"/>
				<stop  offset="1" style="stop-color:#FDC766"/>
			</linearGradient>
			<path class="st11" d="M792.8,159.33c0,0,7.07,35.24-2.21,55.97"/>
		</g>
		<g>
			<linearGradient id="SVGID_12_" gradientUnits="userSpaceOnUse" x1="656.2618" y1="261.2139" x2="656.2618" y2="8.2237">
				<stop  offset="0.1022" style="stop-color:#DE8A5B"/>
				<stop  offset="1" style="stop-color:#FDC766"/>
			</linearGradient>
			<path class="st12" d="M696.55,46.37c30,25.75,6.46,72.96,6.46,72.96l-37.08,43.6l-49.58-57.85l-28.55,34.55
				c-24.87,40.86,0.63,87.94,0.63,87.94l28.22,33.65l37.36-45.2l-15.55-19.19l-22.41,25.84c-24.73-41.04-5.77-66.51-5.77-66.51
				l9.08-10.98l46.94,55.98l58.97-71.35c22.46-36.68,1.48-85.42,1.48-85.42L696.4,8.22l-17.99,23.24l-3.83,4.5"/>
			<linearGradient id="SVGID_13_" gradientUnits="userSpaceOnUse" x1="705.2316" y1="157.667" x2="705.2316" y2="79.7598">
				<stop  offset="0.1022" style="stop-color:#DE8A5B"/>
				<stop  offset="1" style="stop-color:#FDC766"/>
			</linearGradient>
			<path class="st13" d="M719.66,79.76c0,0,11.19,30.66-30.22,77.91"/>
			<linearGradient id="SVGID_14_" gradientUnits="userSpaceOnUse" x1="590.7675" y1="220.087" x2="590.7675" y2="164.1377">
				<stop  offset="0.1022" style="stop-color:#DE8A5B"/>
				<stop  offset="1" style="stop-color:#FDC766"/>
			</linearGradient>
			<path class="st14" d="M591.91,164.14c0,0-7.86,35.34,0.95,55.95"/>
		</g>
	</g>
	<g>
		<g>
			
				<linearGradient id="SVGID_15_" gradientUnits="userSpaceOnUse" x1="1357.7803" y1="847.36" x2="1357.7803" y2="595.4022" gradientTransform="matrix(6.600000e-03 1 -1 6.600000e-03 1970.0781 -665.7401)">
				<stop  offset="0.1022" style="stop-color:#DE8A5B"/>
				<stop  offset="1" style="stop-color:#FDC766"/>
			</linearGradient>
			<path class="st15" d="M1383.39,658.66l-36.78-30.9c0,0-49.17-21.75-85.42,0.13L1191,685.74l56.93,47.83l-10.8,8.9
				c0,0-25.1,18.55-66.64-6.83l25.4-22l-19.51-15.86l-44.47,36.65l34.22,28.75c0,0,47.6,26.25,87.98,2.02l33.99-28.01l-58.86-50.5
				l42.88-36.4c0,0,34.02-20.05,61.19,0.67l30.38,23.93L1383.39,658.66z"/>
			
				<linearGradient id="SVGID_16_" gradientUnits="userSpaceOnUse" x1="1303.4822" y1="740.3358" x2="1303.4822" y2="662.8206" gradientTransform="matrix(6.600000e-03 1 -1 6.600000e-03 1970.0781 -665.7401)">
				<stop  offset="0.1022" style="stop-color:#DE8A5B"/>
				<stop  offset="1" style="stop-color:#FDC766"/>
			</linearGradient>
			<path class="st16" d="M1315.77,628.69c0,0-30.89-11.68-77.33,28.99"/>
			
				<linearGradient id="SVGID_17_" gradientUnits="userSpaceOnUse" x1="1416.1146" y1="801.4669" x2="1416.1146" y2="745.4999" gradientTransform="matrix(6.600000e-03 1 -1 6.600000e-03 1970.0781 -665.7401)">
				<stop  offset="0.1022" style="stop-color:#DE8A5B"/>
				<stop  offset="1" style="stop-color:#FDC766"/>
			</linearGradient>
			<path class="st17" d="M1233.92,755.11c0,0-35.19,7.3-55.98-1.84"/>
		</g>
		<g>
			
				<linearGradient id="SVGID_18_" gradientUnits="userSpaceOnUse" x1="1279.3955" y1="847.3901" x2="1279.3955" y2="594.4028" gradientTransform="matrix(6.600000e-03 1 -1 6.600000e-03 1970.0781 -665.7401)">
				<stop  offset="0.1022" style="stop-color:#DE8A5B"/>
				<stop  offset="1" style="stop-color:#FDC766"/>
			</linearGradient>
			<path class="st18" d="M1346.24,658.11c-25.55,30.17-72.91,6.95-72.91,6.95l-43.85-36.79L1287,578.3l-34.73-28.32
				c-41.02-24.6-87.94,1.21-87.94,1.21l-33.46,28.44l45.45,37.06L1195.4,601l-25.99-22.24c40.87-25,66.47-6.21,66.47-6.21l11.04,9
				l-55.67,47.31l71.74,58.5c36.83,22.22,85.43,0.92,85.43,0.92l35.96-30.57l-23.36-17.84l-4.53-3.8"/>
			
				<linearGradient id="SVGID_19_" gradientUnits="userSpaceOnUse" x1="1328.364" y1="743.8441" x2="1328.364" y2="665.9372" gradientTransform="matrix(6.600000e-03 1 -1 6.600000e-03 1970.0781 -665.7401)">
				<stop  offset="0.1022" style="stop-color:#DE8A5B"/>
				<stop  offset="1" style="stop-color:#FDC766"/>
			</linearGradient>
			<path class="st19" d="M1313,681.44c0,0-30.58,11.39-78.11-29.71"/>
			
				<linearGradient id="SVGID_20_" gradientUnits="userSpaceOnUse" x1="1213.9045" y1="806.2654" x2="1213.9045" y2="750.3167" gradientTransform="matrix(6.600000e-03 1 -1 6.600000e-03 1970.0781 -665.7401)">
				<stop  offset="0.1022" style="stop-color:#DE8A5B"/>
				<stop  offset="1" style="stop-color:#FDC766"/>
			</linearGradient>
			<path class="st20" d="M1227.78,554.25c0,0-35.39-7.63-55.94,1.32"/>
		</g>
	</g>
	<g>
		<g>
			
				<linearGradient id="SVGID_21_" gradientUnits="userSpaceOnUse" x1="789.1528" y1="1410.1527" x2="789.1528" y2="1158.1942" gradientTransform="matrix(-1 8.600000e-03 -8.600000e-03 -1 1475.1609 2464.8357)">
				<stop  offset="0.1022" style="stop-color:#DE8A5B"/>
				<stop  offset="1" style="stop-color:#FDC766"/>
			</linearGradient>
			<path class="st21" d="M713.34,1313.11l30.83-36.84c0,0,21.66-49.21-0.3-85.41l-57.98-70.08l-47.72,57.02l-8.92-10.78
				c0,0-18.6-25.06,6.7-66.65l22.05,25.36l15.82-19.54l-36.73-44.4l-28.68,34.28c0,0-26.15,47.65-1.85,87.98l28.07,33.93
				l50.39-58.96l36.48,42.8c0,0,20.12,33.98-0.55,61.2l-23.88,30.43L713.34,1313.11z"/>
			
				<linearGradient id="SVGID_22_" gradientUnits="userSpaceOnUse" x1="734.8564" y1="1303.1238" x2="734.8564" y2="1225.6074" gradientTransform="matrix(-1 8.600000e-03 -8.600000e-03 -1 1475.1609 2464.8357)">
				<stop  offset="0.1022" style="stop-color:#DE8A5B"/>
				<stop  offset="1" style="stop-color:#FDC766"/>
			</linearGradient>
			<path class="st22" d="M743.18,1245.43c0,0,11.62-30.91-29.14-77.27"/>
			
				<linearGradient id="SVGID_23_" gradientUnits="userSpaceOnUse" x1="847.4814" y1="1364.2627" x2="847.4814" y2="1308.2964" gradientTransform="matrix(-1 8.600000e-03 -8.600000e-03 -1 1475.1609 2464.8357)">
				<stop  offset="0.1022" style="stop-color:#DE8A5B"/>
				<stop  offset="1" style="stop-color:#FDC766"/>
			</linearGradient>
			<path class="st23" d="M616.61,1163.83c0,0-7.37-35.18,1.73-55.99"/>
		</g>
		<g>
			
				<linearGradient id="SVGID_24_" gradientUnits="userSpaceOnUse" x1="710.7684" y1="1410.171" x2="710.7684" y2="1157.194" gradientTransform="matrix(-1 8.600000e-03 -8.600000e-03 -1 1475.1609 2464.8357)">
				<stop  offset="0.1022" style="stop-color:#DE8A5B"/>
				<stop  offset="1" style="stop-color:#FDC766"/>
			</linearGradient>
			<path class="st24" d="M713.82,1275.95c-30.22-25.49-7.09-72.9-7.09-72.9l36.71-43.92l50.08,57.43l28.26-34.79
				c24.52-41.07-1.38-87.93-1.38-87.93l-28.5-33.41l-36.97,45.52l15.72,19.06l22.19-26.03c25.08,40.82,6.34,66.45,6.34,66.45
				l-8.98,11.06l-47.42-55.58l-58.36,71.86c-22.15,36.87-0.75,85.43-0.75,85.43l30.63,35.9l17.79-23.4l3.79-4.53"/>
			
				<linearGradient id="SVGID_25_" gradientUnits="userSpaceOnUse" x1="759.7374" y1="1306.631" x2="759.7374" y2="1228.7279" gradientTransform="matrix(-1 8.600000e-03 -8.600000e-03 -1 1475.1609 2464.8357)">
				<stop  offset="0.1022" style="stop-color:#DE8A5B"/>
				<stop  offset="1" style="stop-color:#FDC766"/>
			</linearGradient>
			<path class="st25" d="M690.43,1242.77c0,0-11.45-30.56,29.56-78.16"/>
			
				<linearGradient id="SVGID_26_" gradientUnits="userSpaceOnUse" x1="645.2734" y1="1369.0446" x2="645.2734" y2="1313.098" gradientTransform="matrix(-1 8.600000e-03 -8.600000e-03 -1 1475.1609 2464.8357)">
				<stop  offset="0.1022" style="stop-color:#DE8A5B"/>
				<stop  offset="1" style="stop-color:#FDC766"/>
			</linearGradient>
			<path class="st26" d="M817.45,1157.3c0,0,7.56-35.41-1.43-55.94"/>
		</g>
	</g>
	<g>
		<g>
			
				<linearGradient id="SVGID_27_" gradientUnits="userSpaceOnUse" x1="215.0904" y1="916.58" x2="215.0904" y2="664.6069" gradientTransform="matrix(-0.0416 -0.9991 0.9991 -0.0416 -643.05 885.7945)">
				<stop  offset="0.1022" style="stop-color:#DE8A5B"/>
				<stop  offset="1" style="stop-color:#FDC766"/>
			</linearGradient>
			<path class="st27" d="M13.56,680.52l37.84,29.59c0,0,49.9,20.02,85.36-3.12l68.13-60.27l-58.57-45.81l10.48-9.27
				c0,0,24.43-19.42,66.84,4.49l-24.62,22.88l20.05,15.17L262.23,596l-35.21-27.54c0,0-48.49-24.56-87.99,1.06l-32.99,29.18
				l60.59,48.41L125.06,685c0,0-33.3,21.23-61.18,1.48l-31.2-22.86L13.56,680.52z"/>
			
				<linearGradient id="SVGID_28_" gradientUnits="userSpaceOnUse" x1="160.789" y1="809.5477" x2="160.789" y2="732.0272" gradientTransform="matrix(-0.0416 -0.9991 0.9991 -0.0416 -643.05 885.7945)">
				<stop  offset="0.1022" style="stop-color:#DE8A5B"/>
				<stop  offset="1" style="stop-color:#FDC766"/>
			</linearGradient>
			<path class="st28" d="M82.19,708.11c0,0,31.28,10.59,76.27-31.68"/>
			
				<linearGradient id="SVGID_29_" gradientUnits="userSpaceOnUse" x1="273.4276" y1="870.6862" x2="273.4276" y2="814.7146" gradientTransform="matrix(-0.0416 -0.9991 0.9991 -0.0416 -643.05 885.7945)">
				<stop  offset="0.1022" style="stop-color:#DE8A5B"/>
				<stop  offset="1" style="stop-color:#FDC766"/>
			</linearGradient>
			<path class="st29" d="M159.56,578.9c0,0,34.92-8.53,56.01-0.12"/>
		</g>
		<g>
			
				<linearGradient id="SVGID_30_" gradientUnits="userSpaceOnUse" x1="136.7013" y1="916.606" x2="136.7013" y2="663.6067" gradientTransform="matrix(-0.0416 -0.9991 0.9991 -0.0416 -643.05 885.7945)">
				<stop  offset="0.1022" style="stop-color:#DE8A5B"/>
				<stop  offset="1" style="stop-color:#FDC766"/>
			</linearGradient>
			<path class="st30" d="M50.71,679.77c24.48-31.05,72.62-9.5,72.62-9.5l45.11,35.24l-55.74,51.95l35.71,27.09
				c41.86,23.15,87.84-4.28,87.84-4.28l32.45-29.59l-46.71-35.45l-18.53,16.34l26.75,21.32c-39.97,26.41-66.21,8.53-66.21,8.53
				l-11.35-8.61l53.98-49.23l-73.75-55.95c-37.58-20.92-85.41,2.07-85.41,2.07L12.6,681.51l23.97,17.01l4.66,3.64"/>
			
				<linearGradient id="SVGID_31_" gradientUnits="userSpaceOnUse" x1="185.6723" y1="813.0549" x2="185.6723" y2="735.1454" gradientTransform="matrix(-0.0416 -0.9991 0.9991 -0.0416 -643.05 885.7945)">
				<stop  offset="0.1022" style="stop-color:#DE8A5B"/>
				<stop  offset="1" style="stop-color:#FDC766"/>
			</linearGradient>
			<path class="st31" d="M83.11,655.3c0,0,30.16-12.45,79.1,26.96"/>
			
				<linearGradient id="SVGID_32_" gradientUnits="userSpaceOnUse" x1="71.206" y1="875.4783" x2="71.206" y2="819.5274" gradientTransform="matrix(-0.0416 -0.9991 0.9991 -0.0416 -643.05 885.7945)">
				<stop  offset="0.1022" style="stop-color:#DE8A5B"/>
				<stop  offset="1" style="stop-color:#FDC766"/>
			</linearGradient>
			<path class="st32" d="M172.73,779.42c0,0,35.64,6.38,55.86-3.28"/>
		</g>
	</g>
	<g>
		<g>
			<linearGradient id="SVGID_33_" gradientUnits="userSpaceOnUse" x1="768.7415" y1="508.0264" x2="768.7415" y2="261.0045">
				<stop  offset="0.1452" style="stop-color:#462546"/>
				<stop  offset="0.4937" style="stop-color:#783F57"/>
				<stop  offset="0.829" style="stop-color:#A35665"/>
				<stop  offset="1" style="stop-color:#B35E6A"/>
			</linearGradient>
			<path class="st33" d="M729.44,508.03c0,0-4.16-41.17,15.24-72.85c0,0,11.88-13.98,1.54-31.05c0,0,17.66-3.06,23.21,15.2
				c0,0,66.19-102.22,5.7-120.09c0,0-54.03-10.65-51.93,31.89c0,0,12.72,36.4,44.11,2.11c0,0-24.63,74.06-65.59-6.06
				c0,0-12.17-79.57,80.23-64.21c75.5,12.56,60.92,105.63,24.68,141.94C770.4,441.22,729.48,488.49,729.44,508.03z"/>
			<linearGradient id="SVGID_34_" gradientUnits="userSpaceOnUse" x1="795.6105" y1="371.0059" x2="795.6105" y2="271.4312">
				<stop  offset="0.1452" style="stop-color:#462546"/>
				<stop  offset="0.4937" style="stop-color:#783F57"/>
				<stop  offset="0.829" style="stop-color:#A35665"/>
				<stop  offset="1" style="stop-color:#B35E6A"/>
			</linearGradient>
			<path class="st34" d="M815.97,371.01c0,0,34.57-85.19-47.91-99.57"/>
		</g>
		<g>
			<linearGradient id="SVGID_35_" gradientUnits="userSpaceOnUse" x1="627.7115" y1="505.6329" x2="627.7115" y2="260.7272">
				<stop  offset="0.1452" style="stop-color:#462546"/>
				<stop  offset="0.4937" style="stop-color:#783F57"/>
				<stop  offset="0.829" style="stop-color:#A35665"/>
				<stop  offset="1" style="stop-color:#B35E6A"/>
			</linearGradient>
			<path class="st35" d="M678.12,505.63c0,0,1.66-41.34-19.62-71.79c0,0-12.71-13.24-3.42-30.9c0,0-17.81-1.99-22.24,16.59
				c0,0-72.26-98.02-12.97-119.53c0,0,53.29-13.91,53.77,28.69c0,0-10.49,37.1-43.9,4.78c0,0,29.08,72.43,65.11-10.02
				c0,0,7.32-80.17-83.97-59.22c-74.61,17.11-54.41,109.12-16.04,143.17C633.19,441.43,676.9,486.13,678.12,505.63z"/>
			<linearGradient id="SVGID_36_" gradientUnits="userSpaceOnUse" x1="605.1938" y1="376.1773" x2="605.1938" y2="272.5572">
				<stop  offset="0.1452" style="stop-color:#462546"/>
				<stop  offset="0.4937" style="stop-color:#783F57"/>
				<stop  offset="0.829" style="stop-color:#A35665"/>
				<stop  offset="1" style="stop-color:#B35E6A"/>
			</linearGradient>
			<path class="st36" d="M591.56,376.18c0,0-42.39-81.59,38.39-103.62"/>
		</g>
	</g>
	<g>
		<g>
			<linearGradient id="SVGID_37_" gradientUnits="userSpaceOnUse" x1="640.4279" y1="816.5918" x2="640.4279" y2="1064.6427">
				<stop  offset="0.1452" style="stop-color:#462546"/>
				<stop  offset="0.4937" style="stop-color:#783F57"/>
				<stop  offset="0.829" style="stop-color:#A35665"/>
				<stop  offset="1" style="stop-color:#B35E6A"/>
			</linearGradient>
			<path class="st37" d="M672.91,816.59c0,0,5.67,40.98-12.54,73.36c0,0-11.36,14.41-0.4,31.09c0,0-17.53,3.71-23.75-14.34
				c0,0-62.37,104.59-1.27,120.22c0,0,54.39,8.66,50.71-33.78c0,0-14.05-35.9-44.16-0.48c0,0,21.88-74.92,65.77,3.64
				c0,0,15.09,79.07-77.8,67.12c-75.92-9.77-64.78-103.31-29.9-140.93C634.44,884.86,673.59,836.12,672.91,816.59z"/>
			<linearGradient id="SVGID_38_" gradientUnits="userSpaceOnUse" x1="614.3521" y1="956.711" x2="614.3521" y2="1054.4493">
				<stop  offset="0.1452" style="stop-color:#462546"/>
				<stop  offset="0.4937" style="stop-color:#783F57"/>
				<stop  offset="0.829" style="stop-color:#A35665"/>
				<stop  offset="1" style="stop-color:#B35E6A"/>
			</linearGradient>
			<path class="st38" d="M591.49,956.71c0,0-31.41,86.41,51.55,97.74"/>
		</g>
		<g>
			<linearGradient id="SVGID_39_" gradientUnits="userSpaceOnUse" x1="781.3796" y1="817.0918" x2="781.3796" y2="1060.4363">
				<stop  offset="0.1452" style="stop-color:#462546"/>
				<stop  offset="0.4937" style="stop-color:#783F57"/>
				<stop  offset="0.829" style="stop-color:#A35665"/>
				<stop  offset="1" style="stop-color:#B35E6A"/>
			</linearGradient>
			<path class="st39" d="M724.29,817.09c0,0-0.13,41.37,22.26,71.02c0,0,13.19,12.76,4.56,30.75c0,0,17.87,1.33,21.62-17.39
				c0,0,75.83,95.29,17.37,118.96c0,0-52.74,15.86-54.79-26.68c0,0,9.12-37.46,43.7-6.39c0,0-31.73-71.31-64.69,12.42
				c0,0-4.36,80.38,86.1,56.09c73.92-19.86,50.35-111.06,10.75-143.67C771.55,879.59,726.23,836.53,724.29,817.09z"/>
			<linearGradient id="SVGID_40_" gradientUnits="userSpaceOnUse" x1="804.7075" y1="943.2637" x2="804.7075" y2="1048.2305">
				<stop  offset="0.1452" style="stop-color:#462546"/>
				<stop  offset="0.4937" style="stop-color:#783F57"/>
				<stop  offset="0.829" style="stop-color:#A35665"/>
				<stop  offset="1" style="stop-color:#B35E6A"/>
			</linearGradient>
			<path class="st40" d="M815.56,943.26c0,0,45.37,79.97-34.54,104.97"/>
		</g>
	</g>
	<g>
		<g>
			<linearGradient id="SVGID_41_" gradientUnits="userSpaceOnUse" x1="884.7924" y1="731.2295" x2="1132.2089" y2="731.2295">
				<stop  offset="0.1452" style="stop-color:#462546"/>
				<stop  offset="0.4937" style="stop-color:#783F57"/>
				<stop  offset="0.829" style="stop-color:#A35665"/>
				<stop  offset="1" style="stop-color:#B35E6A"/>
			</linearGradient>
			<path class="st41" d="M884.79,694.39c0,0,41.11-4.71,73.05,14.27c0,0,14.14,11.7,31.07,1.13c0,0,3.29,17.61-14.9,23.41
				c0,0,103.1,64.82,120.15,4.1c0,0,9.93-54.17-32.58-51.5c0,0-36.22,13.2-1.52,44.13c0,0-74.38-23.64,5.19-65.66
				c0,0,79.41-13.23,65.27,79.36c-11.56,75.67-104.81,62.32-141.6,26.57C952.14,734.45,904.33,694.17,884.79,694.39z"/>
			<linearGradient id="SVGID_42_" gradientUnits="userSpaceOnUse" x1="1022.9545" y1="757.8096" x2="1121.8802" y2="757.8096">
				<stop  offset="0.1452" style="stop-color:#462546"/>
				<stop  offset="0.4937" style="stop-color:#783F57"/>
				<stop  offset="0.829" style="stop-color:#A35665"/>
				<stop  offset="1" style="stop-color:#B35E6A"/>
			</linearGradient>
			<path class="st42" d="M1022.95,779.08c0,0,85.64,33.44,98.93-49.23"/>
		</g>
		<g>
			<linearGradient id="SVGID_43_" gradientUnits="userSpaceOnUse" x1="886.5013" y1="590.2088" x2="1130.8701" y2="590.2088">
				<stop  offset="0.1452" style="stop-color:#462546"/>
				<stop  offset="0.4937" style="stop-color:#783F57"/>
				<stop  offset="0.829" style="stop-color:#A35665"/>
				<stop  offset="1" style="stop-color:#B35E6A"/>
			</linearGradient>
			<path class="st43" d="M886.5,643.03c0,0,41.36,1.11,71.53-20.58c0,0,13.07-12.89,30.85-3.84c0,0,1.75-17.83-16.88-22.02
				c0,0,97.05-73.56,119.34-14.56c0,0,14.62,53.1-27.97,54.14c0,0-37.24-10-5.36-43.84c0,0-72.04,30.04,10.89,64.97
				c0,0,80.26,6.25,58.1-84.75c-18.11-74.37-109.84-52.95-143.37-14.13C950.1,597.26,905.98,641.56,886.5,643.03z"/>
			<linearGradient id="SVGID_44_" gradientUnits="userSpaceOnUse" x1="1014.7944" y1="567.3992" x2="1118.9174" y2="567.3992">
				<stop  offset="0.1452" style="stop-color:#462546"/>
				<stop  offset="0.4937" style="stop-color:#783F57"/>
				<stop  offset="0.829" style="stop-color:#A35665"/>
				<stop  offset="1" style="stop-color:#B35E6A"/>
			</linearGradient>
			<path class="st44" d="M1014.79,554.76c0,0,81.02-43.48,104.12,37"/>
		</g>
	</g>
	<g>
		<g>
			<linearGradient id="SVGID_45_" gradientUnits="userSpaceOnUse" x1="514.5693" y1="593.3185" x2="267.1189" y2="593.3185">
				<stop  offset="0.1452" style="stop-color:#462546"/>
				<stop  offset="0.4937" style="stop-color:#783F57"/>
				<stop  offset="0.829" style="stop-color:#A35665"/>
				<stop  offset="1" style="stop-color:#B35E6A"/>
			</linearGradient>
			<path class="st45" d="M514.57,629.92c0,0-41.1,4.76-73.07-14.17c0,0-14.15-11.68-31.07-1.09c0,0-3.32-17.61,14.87-23.43
				c0,0-103.18-64.69-120.16-3.94c0,0-9.86,54.18,32.64,51.46c0,0,36.21-13.25,1.47-44.14c0,0,74.41,23.55-5.1,65.67
				c0,0-79.39,13.33-65.37-79.28c11.46-75.68,104.72-62.46,141.56-26.75C447.18,589.94,495.03,630.17,514.57,629.92z"/>
			<linearGradient id="SVGID_46_" gradientUnits="userSpaceOnUse" x1="376.3001" y1="566.7646" x2="277.4363" y2="566.7646">
				<stop  offset="0.1452" style="stop-color:#462546"/>
				<stop  offset="0.4937" style="stop-color:#783F57"/>
				<stop  offset="0.829" style="stop-color:#A35665"/>
				<stop  offset="1" style="stop-color:#B35E6A"/>
			</linearGradient>
			<path class="st46" d="M376.3,545.4c0,0-85.69-33.33-98.86,49.36"/>
		</g>
		<g>
			<linearGradient id="SVGID_47_" gradientUnits="userSpaceOnUse" x1="512.9271" y1="734.336" x2="268.614" y2="734.336">
				<stop  offset="0.1452" style="stop-color:#462546"/>
				<stop  offset="0.4937" style="stop-color:#783F57"/>
				<stop  offset="0.829" style="stop-color:#A35665"/>
				<stop  offset="1" style="stop-color:#B35E6A"/>
			</linearGradient>
			<path class="st47" d="M512.93,681.28c0,0-41.36-1.05-71.5,20.67c0,0-13.05,12.9-30.85,3.88c0,0-1.73,17.83,16.91,22
				c0,0-96.96,73.68-119.32,14.71c0,0-14.68-53.08,27.9-54.18c0,0,37.25,9.95,5.42,43.83c0,0,72-30.13-10.97-64.95
				c0,0-80.27-6.15-57.99,84.83c18.2,74.35,109.91,52.81,143.39,13.94C449.39,727.14,493.45,682.78,512.93,681.28z"/>
			<linearGradient id="SVGID_48_" gradientUnits="userSpaceOnUse" x1="384.7494" y1="757.1736" x2="280.5789" y2="757.1736">
				<stop  offset="0.1452" style="stop-color:#462546"/>
				<stop  offset="0.4937" style="stop-color:#783F57"/>
				<stop  offset="0.829" style="stop-color:#A35665"/>
				<stop  offset="1" style="stop-color:#B35E6A"/>
			</linearGradient>
			<path class="st48" d="M384.75,769.72c0,0-80.96,43.58-104.17-36.87"/>
		</g>
	</g>
	<g>
	</g>
	<g>
	</g>
	<g>
	</g>
	<g>
	</g>
	<g>
	</g>
	<g>
	</g>
</g>
</svg>
