<svg xmlns="http://www.w3.org/2000/svg" viewBox="0 0 150 90">
  <defs>
    <style>
      .cls-1 {
        fill: #ffcf08;
      }
    </style>
  </defs>
  <g id="Asset">
    <g>
      <g>
        <g>
          <path class="cls-1" d="M74.27,4.09l-5.12,6s-3.63,8.06-.07,14l9.43,11.6,7.92-9.31,1.45,1.79s3,4.14-1.19,10.94L83.1,35l-2.63,3.19,6,7.35,4.76-5.59s4.37-7.8.43-14.46l-4.57-5.62-8.36,9.62-5.94-7.08s-3.26-5.62.18-10.06l4-5Z"/>
          <path class="cls-1" d="M74.14,10.19c4.93,4.23,1.06,12,1.06,12l-6.1,7.17L61,19.84l-4.69,5.68c-4.09,6.72.1,14.46.1,14.46L61,45.51l6.14-7.43-2.56-3.16L60.9,39.17C56.83,32.43,60,28.24,60,28.24l1.49-1.81,7.72,9.21,9.69-11.73c3.7-6,.25-14,.25-14l-5-5.95-3,3.82-.63.74"/>
        </g>
        <g>
          <path class="cls-1" d="M79.54,86.08s-.68-6.77,2.51-12A4.44,4.44,0,0,0,82.3,69a3.42,3.42,0,0,1,3.82,2.5S97,54.7,87.05,51.76c0,0-8.88-1.75-8.53,5.24,0,0,2.09,6,7.25.35,0,0-4,12.17-10.78-1,0,0-2-13.08,13.19-10.55,12.41,2.06,10,17.36,4,23.33S79.55,82.87,79.54,86.08Z"/>
          <path class="cls-1" d="M71.11,85.69s.27-6.8-3.23-11.81a4.44,4.44,0,0,1-.56-5.08,3.42,3.42,0,0,0-3.66,2.73S51.78,55.42,61.53,51.88c0,0,8.76-2.28,8.84,4.72,0,0-1.73,6.1-7.22.78,0,0,4.78,11.91,10.7-1.64,0,0,1.21-13.18-13.8-9.74-12.26,2.81-8.94,17.94-2.64,23.54S70.91,82.48,71.11,85.69Z"/>
        </g>
      </g>
      <g>
        <path class="cls-1" d="M1.34,42.16l1.57,5.45S-.77,50.82,4.64,53.8c0,0,13.85,3.71,23.52,18.54,0,0-16.79-16.59-24.32-13.57,0,0-2.3,5.33,4.07,6.43,0,0-1.06,6.38-7.51,1.81,0,0,9.66,11.45,12.45-2.12,0,0,7.45.27,11.63,11.67l12.87,2.59"/>
        <path class="cls-1" d="M1.34,42.16l5.89,1.33s3.4-3.51,6.06,2.1c0,0,2.89,14.11,17.07,24.65,0,0-15.52-17.79-12.09-25.17,0,0,5.42-2,6.15,4.44,0,0,6.4-.69,2.23-7.43,0,0,10.82,10.35-2.82,12.37,0,0,.12,8.62,10.5,12.06l3,12.64"/>
      </g>
      <g>
        <path class="cls-1" d="M148.66,42.16l-1.57,5.45s3.68,3.21-1.73,6.19c0,0-13.85,3.71-23.52,18.54,0,0,16.79-16.59,24.32-13.57,0,0,2.3,5.33-4.07,6.43,0,0,1.06,6.38,7.51,1.81,0,0-9.66,11.45-12.45-2.12,0,0-7.45.27-11.63,11.67l-12.87,2.59"/>
        <path class="cls-1" d="M148.66,42.16l-5.89,1.33s-3.4-3.51-6.06,2.1c0,0-2.89,14.11-17.07,24.65,0,0,15.52-17.79,12.09-25.17,0,0-5.42-2-6.15,4.44,0,0-6.4-.69-2.23-7.43,0,0-10.82,10.35,2.82,12.37,0,0-.12,8.62-10.5,12.06l-3,12.64"/>
      </g>
    </g>
  </g>
</svg>
