<svg xmlns="http://www.w3.org/2000/svg" viewBox="0 0 150 150">
  <defs>
    <style>
      .cls-1 {
        fill: #1d1d1e;
      }
    </style>
  </defs>
  <g id="Asset">
    <g>
      <polygon class="cls-1" points="75.77 14.35 80.25 16.54 82.94 16.54 85.14 14.35 86.85 15.45 95.03 20.7 86.69 20.7 82.45 25.18 79.52 25.18 78.38 22.04 75.77 25.18 75.77 14.35"/>
      <line class="cls-1" x1="75.81" y1="13.73" x2="75.73" y2="30.35"/>
      <path class="cls-1" d="M143.05,82V79.58l-34.37-18.4L75.77,29.09,42.87,61.18,8.5,79.58V82L25,84l.66,28.67-8.48,23.62H63.79l2-3.69-.16-12.87,2.44-1.3,6.68-8.23,1.47-4.64-.49,30.73h1.49l-.49-30.73,1.47,4.64,6.68,8.23,2.44,1.3-.16,12.87,2,3.69h45.19l-8.47-23.62L126.59,84ZM12.9,80.4l.65-1.63L45,63,73.82,33,52.48,68,35.05,78.77l-7.82,2.28Zm22,54.72,2.77-9.44,2.77-19.87h1.71l-2.36,19.54-2.12,9.77Zm30.62-23.29-7.82,9.61h3.59l-2.93,10.75-3.43,2.93H39.78l5.86-26.71.65-18.73-1.95-5.86L62.91,81.7l2.6,6.84ZM75.77,81.05,65.51,78.77l2.28-6.52,8-34,8,34L86,78.77Zm20.85,54.07-3.42-2.93-2.93-10.75h3.58L86,111.83V88.54l2.6-6.84,18.57,2.12-1.95,5.86.65,18.73,5.86,26.71Zm17.27,0-2.12-9.77-2.36-19.54h1.71l2.77,19.87,2.77,9.44Zm10.42-54.07-7.81-2.28L99.07,68,77.73,33l28.83,30L138,78.77l.65,1.63Z"/>
    </g>
  </g>
</svg>
