<svg xmlns="http://www.w3.org/2000/svg" viewBox="0 0 150 150">
  <defs>
    <style>
      .cls-1, .cls-3 {
        fill: none;
        stroke: #ffcf08;
        stroke-miterlimit: 10;
      }

      .cls-2 {
        fill: #ffcf08;
      }

      .cls-3 {
        stroke-width: 2px;
      }
    </style>
  </defs>
  <g id="Asset">
    <g>
      <path class="cls-1" d="M37.85,117.36S32.5,91.15,48,71c11.75-15.29,9-33.48,9.71-42.68.39-5.51,7.13-16.46,13.89,3.23,3.38,9.82,3.5,26.67-.74,32.28-2.8,3.73-3.83,11.87-5.33,23.61-.21,1.71-8.14,2.68-8,4.54a117.21,117.21,0,0,1-.5,26.92S46,116,37.85,117.36Z"/>
      <line class="cls-1" x1="47.11" y1="72.17" x2="51.92" y2="72.17"/>
      <line class="cls-1" x1="55.34" y1="56.09" x2="64.84" y2="56.09"/>
      <path class="cls-1" d="M64.84,20.59s.74,11,0,12.92-7.26,0-7.26,0"/>
      <path class="cls-2" d="M66.23,61.44c-6.54,6.74-5.43,15-8.07,19C43.79,102.55,46,119,46,119c9.73.31,24.85,3.87,24.85,3.87-1.67-3.26-1.36-9.93-.9-15.83a16.77,16.77,0,0,1-5.49,3l-.93-1.59c2.17.21,5.7-2.46,6.55-3.13.07-.76.13-1.48.18-2.19-1.48,1.55-7.09,2.8-7.09,2.8l-.6-1.55c2-.26,6.91-2.64,7.83-3.1.08-1.15.14-2.2.14-3.05,0-2.37.09-4.34.28-6.92H63.66V89.6h7.26c.26-3.38.65-7.9,1.16-15.23C73.25,57.65,66.23,61.44,66.23,61.44Zm-10,46.62-9.5-.19.56-2.52,8.94-.07ZM65.4,79c-1.55,4.65-5.68,0-5.68,0s.42-1.79,1.07-4.14c1.11-4,2.45-9.24,5.75-12.34C66.54,62.47,67,74.3,65.4,79Z"/>
      <path class="cls-1" d="M111.39,129.35s4.24-15.07,3-26.61c-1.24-11.78-6.18-21.57-14-31.77-11.74-15.29-9-33.48-9.7-42.68-.4-5.51-7.14-16.46-13.9,3.23-3.37,9.82-3.49,26.67.74,32.28,2.76,3.67,3.8,11.61,5.26,23,.24,1.88,6.7-.72,7,1.34,1,8-2.13,19.47.41,24.1,2.12,3.85,3.66,16.56,3.66,16.56S103.32,130.49,111.39,129.35Z"/>
      <line class="cls-1" x1="101.28" y1="72.17" x2="96.48" y2="72.17"/>
      <line class="cls-1" x1="93.05" y1="56.09" x2="83.55" y2="56.09"/>
      <path class="cls-1" d="M83.55,20.59s-1.69,10.89,0,12.92,7.27,0,7.27,0"/>
      <path class="cls-2" d="M76.31,74.37c.52,7.33.9,11.85,1.16,15.23h7.47v1.69H77.6c.18,2.58.28,4.55.28,6.92,0,.85.05,1.9.13,3.05.92.46,5.83,2.84,7.83,3.1l-.6,1.55s-5.6-1.25-7.09-2.8c.06.71.12,1.43.18,2.19.85.67,4.39,3.34,6.55,3.13L84,110a16.77,16.77,0,0,1-5.49-3c.45,5.9.93,14.5-1.36,17.9,0,0,15.92,5,25.43,3.73,1.35-.18,2.79-27.15-12.3-48.14-2.83-3.94-1.53-12.31-8.08-19C82.16,61.44,75.15,57.65,76.31,74.37Zm15.88,30.91,8.89-.2.56,2.52-9.45.46ZM81.85,62.47c3.3,3.1,4.64,8.32,5.75,12.34.65,2.35,1.08,4.14,1.08,4.14S84.55,83.6,83,79,81.85,62.47,81.85,62.47Z"/>
      <path class="cls-3" d="M5,123.21s30.3-13.31,67.83.23,72.17.25,72.17.25"/>
    </g>
  </g>
</svg>
