<svg xmlns="http://www.w3.org/2000/svg" viewBox="0 0 150 150">
  <defs>
    <style>
      .cls-1 {
        fill: #1d1d1e;
      }
    </style>
  </defs>
  <g id="Sketch">
    <g>
      <rect class="cls-1" x="44.02" y="79.08" width="4.29" height="63.08"/>
      <polygon class="cls-1" points="44.02 68.22 33.91 79.08 75.04 79.08 75.04 68.22 44.02 68.22"/>
      <path class="cls-1" d="M55.21,55V69.46H94.89V55Zm16.9,11.29H59.25V58H72.11Zm18.63-.06H78.07V58H90.74Z"/>
      <rect class="cls-1" x="53.32" y="56.07" width="3" height="12.15"/>
      <rect class="cls-1" x="59.67" y="40.96" width="2.12" height="7.8"/>
      <polygon class="cls-1" points="75.04 40.96 56.32 40.96 68.42 15.46 75.04 15.46 75.04 40.96"/>
      <polygon class="cls-1" points="33.91 79.08 44.02 87.56 44.02 79.08 33.91 79.08"/>
      <polygon class="cls-1" points="47.35 56.07 53.32 60.55 53.32 56.07 47.35 56.07"/>
      <polygon class="cls-1" points="56.32 40.96 59.67 44.08 59.67 40.96 56.32 40.96"/>
      <rect class="cls-1" x="101.78" y="79.08" width="4.29" height="63.08"/>
      <polygon class="cls-1" points="106.07 68.22 116.18 79.08 75.04 79.08 75.04 68.22 106.07 68.22"/>
      <rect class="cls-1" x="93.77" y="56.07" width="3" height="12.15"/>
      <rect class="cls-1" x="88.3" y="40.96" width="2.12" height="7.8"/>
      <polygon class="cls-1" points="75.04 40.96 93.77 40.96 81.67 15.46 75.04 15.46 75.04 40.96"/>
      <polygon class="cls-1" points="116.18 79.08 106.07 87.56 106.07 79.08 116.18 79.08"/>
      <polygon class="cls-1" points="102.73 56.07 96.77 60.55 96.77 56.07 102.73 56.07"/>
      <polygon class="cls-1" points="93.77 40.96 90.42 44.08 90.42 40.96 93.77 40.96"/>
      <path class="cls-1" d="M61.79,41v7.8H75V41ZM68,47.4H63.41V42.52H68Zm5.46,0H68.86V42.52h4.55Z"/>
      <path class="cls-1" d="M75,41v7.8H88.3V41Zm6.22,6.44H76.72V42.52h4.54Zm5.37,0H82.08V42.52h4.55Z"/>
      <path class="cls-1" d="M75,79.08v47.33h5.08v15.75h21.67V79.08Zm6.22,1.8h4.55V90.2H81.26Zm-5.45,0h4.54V90.2H75.81Zm-.46,10.44H95v5.36H75.35ZM87,114.09v-4.66h1.14v4.66Zm1.14.46v4.65H87v-4.65ZM87,109v-4.66h1.14V109Zm-6.63,8.58H75.81v-9.32h4.54Zm0-10.44H75.81V97.79h4.54Zm5.46,10.44H81.26v-9.32h4.55Zm0-10.44H81.26V97.79h4.55ZM91,139H86.41v-9.32H91Zm5.46,0H91.86v-9.32h4.55Zm.34-48.29H95.61V86h1.14Zm0-5.12H95.61V80.88h1.14Zm1.82,20H97.44v-4.66h1.13Zm0-5.12H97.44V95.77h1.13Zm0-5.11H97.44V90.66h1.13Zm1.7-4.66H99.13V86h1.14Zm0-5.12H99.13V80.88h1.14Z"/>
      <path class="cls-1" d="M55.64,96.68V91.32H75V79.08H48.3v63.08H70V126.41H75V96.68Zm14.71-15.8H74.9V90.2H70.35Zm-5.45,0h4.54V90.2H64.9Zm-2.37,23.43h1.14V109H62.53Zm0,5.12h1.14v4.66H62.53Zm0,5.12h1.14v4.65H62.53ZM53.14,80.88h1.14v4.66H53.14Zm-2.38,9.78H49.62V86h1.14Zm0-5.12H49.62V80.88h1.14Zm1.82,20H51.44v-4.66h1.14Zm0-5.12H51.44V95.77h1.14Zm0-5.11H51.44V90.66h1.14ZM53.14,86h1.14v4.66H53.14ZM58.21,139H53.67v-9.32h4.54Zm5.46,0H59.13v-9.32h4.54Zm5.77-21.4H64.9v-9.32h4.54Zm0-10.44H64.9V97.79h4.54Zm5.46,10.44H70.35v-9.32H74.9Zm0-10.44H70.35V97.79H74.9Z"/>
      <polygon class="cls-1" points="68.42 15.46 74.9 5 81.67 15.46 68.42 15.46"/>
      <rect class="cls-1" x="44.02" y="142.16" width="62.05" height="0.95"/>
      <rect class="cls-1" x="44.02" y="143.11" width="62.05" height="0.95"/>
      <rect class="cls-1" x="44.02" y="144.05" width="62.05" height="0.95"/>
      <polygon class="cls-1" points="74.9 5 70.55 15.46 68.42 15.46 74.9 5"/>
      <polygon class="cls-1" points="74.9 5 81.67 15.46 79.23 15.46 74.9 5"/>
      <polygon class="cls-1" points="77.54 15.46 75.7 15.46 74.9 5 77.54 15.46"/>
      <polygon class="cls-1" points="73.86 15.46 74.9 5 72.12 15.46 73.86 15.46"/>
      <polygon class="cls-1" points="96.68 56.07 102.65 56.07 95.84 48.76 90.34 48.76 85.88 48.76 85.81 48.76 81.58 48.76 81.36 48.76 78.24 48.76 74.96 48.76 73.32 48.76 71.42 48.76 67.75 48.76 63.6 48.76 59.58 48.76 54.07 48.76 47.26 56.07 53.23 56.07 57.41 56.07 62.72 56.07 67.75 56.07 73.68 56.07 78.13 56.07 82.9 56.07 86.44 56.07 86.9 56.07 92.16 56.07 92.16 56.07 96.68 56.07 96.68 56.07"/>
      <polygon class="cls-1" points="43.93 87.59 33.82 79.08 37 79.09 43.93 87.59"/>
      <polygon class="cls-1" points="43.93 79.08 43.93 87.59 40.11 79.08 43.93 79.08"/>
      <rect class="cls-1" x="93.68" y="56.07" width="1.5" height="12.15"/>
      <rect class="cls-1" x="53.23" y="56.07" width="1.5" height="12.15"/>
      <polygon class="cls-1" points="59 91.57 59 96.45 55.64 96.67 55.64 91.32 59 91.57"/>
      <polygon class="cls-1" points="91 91.59 94.89 91.32 94.89 96.67 91 96.42 91 91.59"/>
      <polygon class="cls-1" points="103.92 79.07 103.92 142.16 106.07 142.16 105.98 79.09 103.92 79.07"/>
      <rect class="cls-1" x="44.02" y="79.08" width="2.14" height="63.08"/>
    </g>
  </g>
</svg>
